<svg viewBox="0 0 123 25" fill="none" xmlns="http://www.w3.org/2000/svg" class=" lg:hidden" width="90px" height="18px" color="#0B0B0B"><path fill-rule="evenodd" clip-rule="evenodd" d="M74.4124 10.0775H70.8984V10.0765H69.1019H69.0864C65.9749 10.0765 64.9377 12.8629 64.9377 16.5626V24.2871H61.625V7.21265H64.9377V10.5254C65.7117 8.24981 67.074 7.21265 69.4889 7.21265H71.5632V7.21369H74.4124V5.52637C74.4124 2.15172 76.626 0 80.0626 0H82.849V2.8638H80.2484C78.6849 2.8638 77.6477 3.90096 77.6477 5.58829V7.15177H82.849V10.0156H77.7251V24.2417H74.4124V10.093V10.0775ZM32.5234 0.078125H35.8362V24.3044H32.5234V0.078125ZM22.8494 24.6432C27.0135 24.6432 30.125 22.3057 30.7132 18.7917H27.4624C26.998 20.6803 25.3881 21.7794 22.8494 21.7794C19.8617 21.7794 17.7874 19.6431 17.5242 16.3923H30.512C30.512 16.2429 30.5251 16.0509 30.5392 15.8434V15.8434C30.5558 15.5997 30.5739 15.3345 30.5739 15.092C30.5739 10.7421 27.6637 6.98047 22.4624 6.98047C17.2611 6.98047 14.2734 10.9898 14.2734 15.7422C14.2734 20.4945 17.5862 24.6432 22.8494 24.6432ZM27.2612 13.9774H17.5862C18.0506 11.1136 19.7998 9.62755 22.4624 9.62755C25.3107 9.62755 27.0599 11.3768 27.2612 13.9774ZM10.1239 10.0904L0 21.4527V24.3165H14.4119V21.4527H3.88548L13.8856 10.0904V7.22656H0.510838V10.0904H10.1239ZM41.8752 0.078125H38.5625V24.3044H41.8752V0.078125ZM60.0023 18.7884C59.414 22.3024 56.3025 24.6399 52.1384 24.6399C46.8752 24.6399 43.5625 20.4912 43.5625 15.7388C43.5625 10.9865 46.5501 7.03906 51.8133 7.03906C57.0765 7.03906 59.9249 10.8007 59.9249 15.1506C59.9249 15.5995 59.9249 16.1258 59.863 16.4509H46.8133C47.0765 19.7017 49.1508 21.838 52.1384 21.838C54.6771 21.838 56.2871 20.7389 56.7515 18.8503L60.0023 18.7884ZM46.8752 13.9741H56.5502C56.349 11.3735 54.5997 9.62423 51.7514 9.62423C49.0889 9.62423 47.3396 11.1103 46.8752 13.9741ZM91.1619 24.6399C95.326 24.6399 98.4375 22.3024 99.0257 18.7884H95.7749C95.3105 20.677 93.7006 21.776 91.1619 21.776C88.1742 21.776 86.0999 19.6398 85.8367 16.389H98.8864C98.9483 16.0639 98.9483 15.5376 98.9483 15.0887C98.9483 10.7388 96.1 7.03906 90.8368 7.03906C85.5736 7.03906 82.5859 10.9865 82.5859 15.7388C82.5859 20.4912 85.8987 24.6399 91.1619 24.6399ZM95.5737 13.9741H85.8987C86.425 11.1103 88.1123 9.62423 90.7749 9.62423C93.6232 9.62423 95.3724 11.3735 95.5737 13.9741ZM100.836 0.078125H104.149V24.3044H100.836V0.078125ZM114.087 7.03842C108.824 7.03842 105.898 10.7381 105.898 15.8001C105.898 20.8621 108.824 24.5618 114.149 24.5618C116.286 24.6392 118.36 23.5866 119.536 21.7754V24.3141H122.787V0.0878906H119.536V9.82483C118.313 8.01367 116.224 6.9765 114.087 7.03842ZM114.474 9.88675C117.663 9.88675 119.738 12.2242 119.738 15.8001C119.738 19.376 117.601 21.7135 114.474 21.7135C111.347 21.7135 109.273 19.3141 109.273 15.8001C109.273 12.2861 111.285 9.88675 114.474 9.88675Z" fill="#0B0B0B"></path></svg>